<svg xlink="http://www.w3.org/1999/xlink" viewBox="0 0 5000 5000" xmlns="http://www.w3.org/2000/svg" style="transform: scale(5);"><defs><filter id="goo"><feGaussianBlur in="SourceGraphic" stdDeviation="0" result="blur"></feGaussianBlur><feColorMatrix in="blur" type="matrix" values="1 0 0 0 0 0 1 0 0 0 0 0 1 0 0 0 0 0 19 -9" result="good"></feColorMatrix><feComposite in="SourceGraphic" in2="goo" operator="atop"></feComposite></filter><path d="M356,237C360,278 282,273 272,280C262,287 250,362 211,349C172,333 214,267 213,255C212,240 158,183 187,163C215,143 250,211 264,215C277,221 353,202 356,237z" id="P0"></path><path d="M189,200C202,184 238,219 246,218C254,217 280,174 300,189C316,202 281,238 282,248C282,256 324,285 311,300C298,316 262,281 252,282C244,282 215,324 200,311C184,298 219,262 218,252C218,244 176,215 189,200z" id="P1"></path><path d="M218,169C233,162 250,216 258,218C265,219 303,178 317,195C329,207 283,239 283,248C284,254 335,278 323,297C315,311 270,278 262,281C256,284 250,340 228,334C212,331 230,278 224,271C220,267 165,278 163,255C161,239 217,239 222,232C225,226 197,178 218,169z" id="P2"></path><path d="M313,327C283,350 249,272 242,269C236,267 162,306 152,269C146,230 232,238 237,234C243,229 257,145 287,157C317,169 268,239 270,246C271,254 339,307 313,327z" id="P3"></path><path d="M194,261C191,246 223,241 228,234C232,228 225,196 239,194C254,191 259,223 265,227C271,230 302,221 306,239C309,254 277,259 273,265C270,271 279,302 261,306C246,309 241,277 235,273C229,270 198,279 194,261z" id="P4"></path><path d="M346,275C343,294 267,262 263,266C260,269 282,347 256,349C237,352 243,270 239,267C235,265 167,310 158,287C149,269 229,250 230,245C231,241 167,190 187,173C201,160 243,230 249,229C253,229 282,153 303,166C320,175 267,238 269,242C271,246 352,250 346,275z" id="P5"></path><path d="M182,228C192,202 235,222 244,220C254,219 282,183 302,201C320,222 282,250 279,259C275,270 286,316 263,320C241,324 236,279 228,271C220,262 175,250 182,228z" id="P6"></path><path d="M197,186C213,172 244,217 254,218C262,218 301,180 314,197C328,213 283,244 282,254C282,262 320,301 303,314C287,328 256,283 246,282C238,282 199,320 186,303C172,287 217,256 218,246C218,238 180,199 197,186z" id="P7"></path><path d="M363,279C359,301 283,274 275,280C270,286 287,365 257,367C235,370 237,289 229,283C222,280 153,321 141,293C132,273 209,250 212,240C213,233 153,179 175,160C192,144 237,211 248,211C255,210 287,135 313,151C332,162 283,226 287,235C290,242 371,250 363,279z" id="P8"></path><path d="M325,188C348,218 287,252 283,263C279,274 305,336 268,345C231,351 230,282 223,273C214,262 147,244 160,214C172,185 230,219 243,215C257,213 305,163 325,188z" id="P9"></path><path d="M223,293C211,286 226,263 225,257C223,250 199,237 207,223C214,211 237,226 245,224C252,223 266,200 277,207C289,214 274,237 276,245C277,252 300,266 293,277C286,289 263,274 255,276C248,277 234,300 223,293z" id="P10"></path><path d="M364,228C369,250 290,258 285,267C283,274 332,337 306,352C287,364 255,290 245,289C238,288 192,355 171,335C153,320 213,267 211,257C210,250 133,228 145,201C153,180 222,221 231,216C238,212 235,131 265,135C287,136 269,215 277,221C283,226 358,199 364,228z" id="P11"></path><path d="M222,294C205,282 223,257 224,248C224,240 208,215 225,204C243,195 257,223 264,228C273,234 303,236 302,253C301,270 271,268 263,273C254,278 236,303 222,294z" id="P12"></path><path d="M206,180C223,168 248,216 256,218C264,219 305,183 320,206C332,223 284,248 282,258C280,266 313,309 294,320C277,332 252,284 242,282C234,280 191,313 180,294C168,277 216,252 218,242C220,234 187,191 206,180z" id="P13"></path><path d="M185,224C189,211 227,229 234,225C239,221 236,179 254,180C268,180 263,222 269,227C274,230 313,215 318,233C322,245 281,254 278,261C276,267 303,299 288,309C277,317 256,280 248,280C242,280 219,315 205,304C194,296 223,265 221,257C219,252 178,241 185,224z" id="P14"></path></defs><rect id="RECT" width="5000" height="5000" fill="#FEFFFC"></rect><g id="group" fill="#0D2F56" filter="" opacity="0.03"><use x="92" y="148" href="#P9"></use><use x="-68" y="475" href="#P9"></use><use x="96" y="785" href="#P8"></use><use x="-54" y="909" href="#P7"></use><use x="56" y="1432" href="#P10"></use><use x="-7" y="1558" href="#P12"></use><use x="225" y="2025" href="#P0"></use><use x="219" y="2374" href="#P9"></use><use x="18" y="2748" href="#P8"></use><use x="258" y="2947" href="#P13"></use><use x="159" y="3293" href="#P5"></use><use x="83" y="3466" href="#P3"></use><use x="20" y="3874" href="#P11"></use><use x="217" y="4111" href="#P13"></use><use x="117" y="4416" href="#P9"></use><use x="-92" y="4858" href="#P8"></use><use x="-117" y="5164" href="#P4"></use><use x="494" y="-63" href="#P2"></use><use x="328" y="405" href="#P0"></use><use x="448" y="821" href="#P4"></use><use x="340" y="1160" href="#P0"></use><use x="534" y="1506" href="#P8"></use><use x="399" y="1816" href="#P2"></use><use x="402" y="1883" href="#P4"></use><use x="336" y="2370" href="#P7"></use><use x="443" y="2536" href="#P0"></use><use x="579" y="2992" href="#P5"></use><use x="444" y="3305" href="#P4"></use><use x="449" y="3611" href="#P14"></use><use x="415" y="3873" href="#P3"></use><use x="555" y="4351" href="#P9"></use><use x="436" y="4645" href="#P5"></use><use x="577" y="4924" href="#P13"></use><use x="303" y="5164" href="#P2"></use><use x="753" y="81" href="#P11"></use><use x="605" y="489" href="#P4"></use><use x="645" y="768" href="#P14"></use><use x="894" y="1007" href="#P0"></use><use x="869" y="1487" href="#P6"></use><use x="859" y="1646" href="#P0"></use><use x="779" y="1951" href="#P2"></use><use x="940" y="2337" href="#P4"></use><use x="777" y="2702" href="#P5"></use><use x="694" y="2926" href="#P7"></use><use x="821" y="3132" href="#P5"></use><use x="836" y="3703" href="#P4"></use><use x="719" y="4008" href="#P14"></use><use x="874" y="4121" href="#P6"></use><use x="918" y="4408" href="#P4"></use><use x="815" y="4754" href="#P12"></use><use x="860" y="5286" href="#P8"></use><use x="1045" y="250" href="#P7"></use><use x="982" y="599" href="#P6"></use><use x="1245" y="750" href="#P5"></use><use x="1015" y="1095" href="#P13"></use><use x="989" y="1423" href="#P11"></use><use x="1151" y="1805" href="#P0"></use><use x="1257" y="2085" href="#P11"></use><use x="1317" y="2264" href="#P14"></use><use x="1041" y="2663" href="#P1"></use><use x="1177" y="2793" href="#P5"></use><use x="1237" y="3333" href="#P6"></use><use x="1079" y="3633" href="#P7"></use><use x="1282" y="3846" href="#P7"></use><use x="1145" y="4120" href="#P13"></use><use x="1110" y="4605" href="#P13"></use><use x="1124" y="4765" href="#P11"></use><use x="1040" y="5246" href="#P10"></use><use x="1332" y="232" href="#P9"></use><use x="1456" y="327" href="#P9"></use><use x="1467" y="951" href="#P3"></use><use x="1535" y="1250" href="#P12"></use><use x="1508" y="1525" href="#P11"></use><use x="1471" y="1652" href="#P12"></use><use x="1343" y="2110" href="#P8"></use><use x="1377" y="2279" href="#P14"></use><use x="1575" y="2757" href="#P14"></use><use x="1579" y="2820" href="#P8"></use><use x="1336" y="3152" href="#P4"></use><use x="1481" y="3651" href="#P12"></use><use x="1298" y="4000" href="#P7"></use><use x="1315" y="4236" href="#P14"></use><use x="1409" y="4479" href="#P13"></use><use x="1411" y="4716" href="#P9"></use><use x="1491" y="5249" href="#P12"></use><use x="1724" y="200" href="#P1"></use><use x="1680" y="606" href="#P12"></use><use x="1607" y="908" href="#P9"></use><use x="1747" y="1226" href="#P12"></use><use x="1717" y="1572" href="#P3"></use><use x="1721" y="1834" href="#P8"></use><use x="1914" y="1951" href="#P3"></use><use x="1825" y="2477" href="#P10"></use><use x="1921" y="2758" href="#P3"></use><use x="1709" y="2956" href="#P4"></use><use x="1713" y="3313" href="#P10"></use><use x="1780" y="3674" href="#P13"></use><use x="1791" y="4003" href="#P0"></use><use x="1755" y="4031" href="#P3"></use><use x="1878" y="4356" href="#P9"></use><use x="1607" y="5023" href="#P0"></use><use x="1578" y="5265" href="#P9"></use><use x="1998" y="329" href="#P12"></use><use x="2141" y="509" href="#P11"></use><use x="2082" y="881" href="#P11"></use><use x="1955" y="1291" href="#P5"></use><use x="2180" y="1548" href="#P4"></use><use x="2061" y="1738" href="#P4"></use><use x="2123" y="2091" href="#P11"></use><use x="2161" y="2403" href="#P2"></use><use x="2014" y="2639" href="#P13"></use><use x="2189" y="3038" href="#P3"></use><use x="2182" y="3088" href="#P14"></use><use x="1927" y="3411" href="#P0"></use><use x="1929" y="3718" href="#P0"></use><use x="2012" y="4126" href="#P1"></use><use x="1973" y="4534" href="#P4"></use><use x="2139" y="4928" href="#P3"></use><use x="1931" y="5250" href="#P9"></use><use x="2222" y="68" href="#P0"></use><use x="2449" y="395" href="#P14"></use><use x="2494" y="970" href="#P7"></use><use x="2202" y="1093" href="#P5"></use><use x="2253" y="1492" href="#P9"></use><use x="2327" y="1856" href="#P2"></use><use x="2223" y="1961" href="#P10"></use><use x="2224" y="2302" href="#P5"></use><use x="2297" y="2667" href="#P12"></use><use x="2299" y="3030" href="#P10"></use><use x="2441" y="3117" href="#P8"></use><use x="2248" y="3400" href="#P11"></use><use x="2307" y="3872" href="#P11"></use><use x="2236" y="4036" href="#P10"></use><use x="2308" y="4563" href="#P0"></use><use x="2345" y="4923" href="#P7"></use><use x="2371" y="5238" href="#P1"></use><use x="2586" y="23" href="#P13"></use><use x="2500" y="355" href="#P11"></use><use x="2745" y="906" href="#P5"></use><use x="2570" y="1137" href="#P2"></use><use x="2564" y="1606" href="#P5"></use><use x="2512" y="1784" href="#P12"></use><use x="2509" y="1954" href="#P4"></use><use x="2506" y="2242" href="#P12"></use><use x="2613" y="2515" href="#P6"></use><use x="2607" y="2894" href="#P6"></use><use x="2507" y="3278" href="#P14"></use><use x="2700" y="3629" href="#P13"></use><use x="2514" y="3665" href="#P13"></use><use x="2798" y="4040" href="#P12"></use><use x="2629" y="4464" href="#P12"></use><use x="2658" y="4750" href="#P11"></use><use x="2657" y="5167" href="#P9"></use><use x="3084" y="50" href="#P4"></use><use x="2923" y="554" href="#P11"></use><use x="2925" y="846" href="#P14"></use><use x="2824" y="1037" href="#P8"></use><use x="2939" y="1531" href="#P10"></use><use x="2929" y="1673" href="#P10"></use><use x="2808" y="2184" href="#P5"></use><use x="3024" y="2357" href="#P14"></use><use x="2980" y="2700" href="#P13"></use><use x="2959" y="2833" href="#P9"></use><use x="2970" y="3101" href="#P11"></use><use x="2885" y="3599" href="#P12"></use><use x="2992" y="3932" href="#P1"></use><use x="2898" y="4057" href="#P11"></use><use x="2939" y="4482" href="#P7"></use><use x="2939" y="4672" href="#P8"></use><use x="3113" y="5088" href="#P7"></use><use x="3128" y="313" href="#P0"></use><use x="3128" y="455" href="#P12"></use><use x="3187" y="828" href="#P9"></use><use x="3404" y="1004" href="#P9"></use><use x="3246" y="1444" href="#P4"></use><use x="3126" y="1757" href="#P13"></use><use x="3127" y="2058" href="#P0"></use><use x="3147" y="2221" href="#P4"></use><use x="3300" y="2514" href="#P2"></use><use x="3190" y="2791" href="#P1"></use><use x="3122" y="3148" href="#P11"></use><use x="3382" y="3529" href="#P9"></use><use x="3145" y="3869" href="#P0"></use><use x="3412" y="4325" href="#P13"></use><use x="3127" y="4350" href="#P9"></use><use x="3303" y="4871" href="#P13"></use><use x="3232" y="5357" href="#P14"></use><use x="3502" y="289" href="#P0"></use><use x="3544" y="589" href="#P0"></use><use x="3733" y="660" href="#P11"></use><use x="3677" y="1214" href="#P3"></use><use x="3486" y="1610" href="#P13"></use><use x="3561" y="1680" href="#P0"></use><use x="3625" y="2079" href="#P9"></use><use x="3521" y="2333" href="#P3"></use><use x="3396" y="2786" href="#P1"></use><use x="3594" y="2795" href="#P7"></use><use x="3423" y="3117" href="#P5"></use><use x="3534" y="3601" href="#P4"></use><use x="3537" y="3927" href="#P3"></use><use x="3528" y="4113" href="#P1"></use><use x="3655" y="4637" href="#P7"></use><use x="3592" y="4740" href="#P8"></use><use x="3582" y="5293" href="#P10"></use><use x="3833" y="159" href="#P6"></use><use x="3982" y="489" href="#P14"></use><use x="3928" y="755" href="#P8"></use><use x="3902" y="1264" href="#P1"></use><use x="3764" y="1357" href="#P12"></use><use x="3768" y="1740" href="#P4"></use><use x="3986" y="2197" href="#P0"></use><use x="3988" y="2392" href="#P8"></use><use x="3900" y="2718" href="#P6"></use><use x="3977" y="2845" href="#P6"></use><use x="3989" y="3388" href="#P10"></use><use x="3933" y="3629" href="#P11"></use><use x="4025" y="3840" href="#P10"></use><use x="3767" y="4153" href="#P10"></use><use x="4052" y="4495" href="#P1"></use><use x="3897" y="4841" href="#P5"></use><use x="3988" y="5107" href="#P14"></use><use x="4206" y="208" href="#P0"></use><use x="4074" y="594" href="#P10"></use><use x="4242" y="711" href="#P9"></use><use x="4293" y="976" href="#P3"></use><use x="4103" y="1478" href="#P12"></use><use x="4181" y="1733" href="#P1"></use><use x="4242" y="1932" href="#P5"></use><use x="4009" y="2410" href="#P1"></use><use x="4049" y="2655" href="#P9"></use><use x="4069" y="2941" href="#P1"></use><use x="4019" y="3146" href="#P14"></use><use x="4269" y="3524" href="#P3"></use><use x="4269" y="3852" href="#P5"></use><use x="4295" y="4118" href="#P5"></use><use x="4149" y="4652" href="#P9"></use><use x="4100" y="5008" href="#P4"></use><use x="4368" y="5282" href="#P14"></use><use x="4436" y="253" href="#P3"></use><use x="4516" y="314" href="#P8"></use><use x="4621" y="845" href="#P0"></use><use x="4650" y="1217" href="#P10"></use><use x="4384" y="1293" href="#P7"></use><use x="4398" y="1840" href="#P10"></use><use x="4465" y="1899" href="#P9"></use><use x="4452" y="2494" href="#P1"></use><use x="4495" y="2504" href="#P8"></use><use x="4429" y="2858" href="#P0"></use><use x="4413" y="3276" href="#P8"></use><use x="4438" y="3605" href="#P12"></use><use x="4641" y="4062" href="#P12"></use><use x="4589" y="4264" href="#P12"></use><use x="4482" y="4670" href="#P6"></use><use x="4553" y="4752" href="#P1"></use><use x="4544" y="5187" href="#P7"></use><use x="4901" y="141" href="#P9"></use><use x="4924" y="272" href="#P0"></use><use x="4738" y="881" href="#P11"></use><use x="4942" y="1079" href="#P2"></use><use x="4814" y="1498" href="#P13"></use><use x="4894" y="1659" href="#P10"></use><use x="4945" y="1959" href="#P5"></use><use x="4947" y="2495" href="#P0"></use><use x="4952" y="2809" href="#P2"></use><use x="4782" y="2929" href="#P11"></use><use x="4857" y="3346" href="#P3"></use><use x="5015" y="3450" href="#P6"></use><use x="4864" y="3936" href="#P8"></use><use x="4921" y="4346" href="#P13"></use><use x="4786" y="4589" href="#P1"></use><use x="4900" y="4901" href="#P8"></use><use x="4865" y="5225" href="#P8"></use></g></svg>